<?xml version="1.0" encoding="utf-8"?>
<!-- Generator: Adobe Illustrator 21.0.0, SVG Export Plug-In . SVG Version: 6.00 Build 0)  -->
<!DOCTYPE svg PUBLIC "-//W3C//DTD SVG 1.1//EN" "http://www.w3.org/Graphics/SVG/1.1/DTD/svg11.dtd">
<svg version="1.1" id="Layer_1" xmlns="http://www.w3.org/2000/svg" xmlns:xlink="http://www.w3.org/1999/xlink" x="0px" y="0px"
	 viewBox="0 0 224.5 240.5" style="enable-background:new 0 0 224.5 240.5;" xml:space="preserve">
<style type="text/css">
	.st0{fill:none;stroke:#000000;stroke-width:1.2;}
	.st1{fill:none;stroke:#000000;stroke-width:1.2;stroke-linecap:round;stroke-linejoin:round;stroke-miterlimit:10;}
	.st2{fill:none;stroke:#000000;stroke-width:1.2;stroke-linejoin:round;stroke-miterlimit:10;}
</style>
<path d="M20.1,190.1l19-12l-20.5,0.6l-0.4-0.7l9.3-18.2l-19,12l-0.7-1l21-13.3l0.6,0.9l-9.8,19.2l21.5-0.6l0.6,0.9l-21,13.3
	L20.1,190.1z"/>
<path d="M53.5,188.4l0.8,0.7l-7.6,25.9l-1-0.8l2.6-8.9l-9.6-7.9l-8.3,4.3l-1-0.8L53.5,188.4z M48.7,204.2L53,190l-13.3,6.8
	L48.7,204.2z"/>
<path d="M57.6,221.4l9.9-22.8l7.5,3.2c1.8,0.8,3.2,1.8,4.3,2.9c1.1,1.2,1.9,2.5,2.3,3.9c0.4,1.4,0.6,2.9,0.4,4.5
	c-0.1,1.6-0.6,3.1-1.2,4.7c-0.8,1.7-1.7,3.2-2.8,4.4c-1.1,1.2-2.3,2.1-3.7,2.7c-1.4,0.6-2.8,0.9-4.4,0.8c-1.6,0-3.2-0.4-4.8-1.1
	L57.6,221.4z M79.6,217.4c0.6-1.5,1-3,1.2-4.4c0.1-1.4,0-2.8-0.4-4.1c-0.4-1.3-1.1-2.4-2.1-3.5c-1-1-2.2-1.9-3.8-2.6l-6.3-2.7
	l-9,20.7l6.3,2.7c1.6,0.7,3.1,1,4.5,1c1.4,0,2.7-0.3,4-0.9c1.2-0.6,2.3-1.4,3.3-2.5C78.2,220.1,79,218.8,79.6,217.4z"/>
<path d="M105.3,233.6l-0.2,1.1l-16.3-2.2l3.4-24.6l16,2.2l-0.2,1.1l-14.7-2l-1.4,10.4l12.9,1.8l-0.2,1.1l-12.9-1.8l-1.5,10.9
	L105.3,233.6z"/>
<path d="M118.5,234.6l-2.9-24.7l1.2-0.1l2.8,23.6l15.1-1.8l0.1,1.1L118.5,234.6z"/>
<path d="M161.2,222.8l0.4,1.1l-15.4,5.7l-8.6-23.3l15.1-5.6l0.4,1.1l-14,5.1l3.6,9.8l12.2-4.5l0.4,1.1l-12.2,4.5l3.8,10.3
	L161.2,222.8z"/>
<path d="M172.5,217.4l-13.1-21.1l1-0.6l13.1,21.1L172.5,217.4z"/>
<path d="M170.6,191.7l15.8,16.1l-0.9,0.9l-17.4-17.7l0.6-0.6l29.1,3.5l-16.1-16.3l0.9-0.9l17.4,17.7l-0.8,0.8L170.6,191.7z"/>
<path d="M216,167l1,0.5l-8,14.3l-21.7-12.1l7.9-14.1l1,0.5l-7.3,13l9.1,5.1l6.4-11.4l1,0.5l-6.4,11.4l9.6,5.4L216,167z"/>
<path d="M51.1,51.5c1.6,0,3.2-0.6,4.8-1.8c1.2-0.8,1.9-1.7,2.3-2.6c0.4-0.9,0.5-1.9,0.3-2.9c-0.2-1.1-0.7-2.2-1.4-3.4
	c-0.7-1.2-1.6-2.6-2.7-4L47,26.5l1-0.7L55.3,36c1.1,1.5,2,3,2.8,4.3c0.8,1.4,1.3,2.6,1.5,3.8c0.2,1.2,0.1,2.3-0.4,3.4
	c-0.5,1.1-1.4,2.1-2.7,3.1c-1.7,1.2-3.5,1.9-5.3,1.9L51.1,51.5z"/>
<path d="M78.4,37.1c1.7-0.7,2.9-1.5,3.8-2.6c0.9-1.1,1.4-2.2,1.6-3.4c0.2-1.2,0.2-2.6,0-3.9s-0.6-2.7-1.1-4l-4.6-11.6l1.1-0.4
	l4.6,11.6c0.6,1.5,1,3.1,1.3,4.6c0.2,1.5,0.2,3-0.1,4.4c-0.3,1.4-1,2.6-1.9,3.7c-1,1.1-2.3,2-4.1,2.7c-1.8,0.7-3.5,1-5,0.8
	c-1.5-0.2-2.8-0.7-4-1.5c-1.2-0.8-2.2-1.8-3.1-3.1c-0.9-1.3-1.6-2.6-2.2-4.1l-4.6-11.6l1.1-0.5l4.6,11.6c0.5,1.3,1.2,2.6,1.9,3.8
	c0.8,1.2,1.7,2.1,2.7,2.8c1,0.7,2.2,1.2,3.5,1.4C75.3,37.9,76.8,37.7,78.4,37.1z"/>
<path d="M95.8,32.8L94.1,8l8.1-0.6c2-0.1,3.7,0.1,5.2,0.6c1.5,0.6,2.8,1.4,3.8,2.4c1,1.1,1.9,2.3,2.5,3.8c0.6,1.5,0.9,3.1,1.1,4.8
	c0.1,1.9,0,3.6-0.5,5.2c-0.4,1.6-1.1,2.9-2.1,4.1c-0.9,1.2-2.1,2.1-3.5,2.8s-3,1.1-4.8,1.2L95.8,32.8z M113.5,19.1
	c-0.1-1.6-0.4-3.1-1-4.5c-0.5-1.3-1.3-2.5-2.3-3.4c-1-0.9-2.1-1.6-3.5-2.1s-2.9-0.6-4.5-0.5l-6.9,0.5L97,31.6l6.9-0.5
	c1.7-0.1,3.2-0.5,4.5-1.2c1.3-0.7,2.3-1.5,3.1-2.6c0.8-1.1,1.4-2.3,1.7-3.7C113.5,22.2,113.7,20.7,113.5,19.1z"/>
<path d="M124.5,7.6l6.2,15.6l11.8-12l1.3,0.3l-12.7,13.1l-1.9,9.3l-1.2-0.2l1.9-9.4l-6.7-16.9L124.5,7.6z"/>
<path d="M169.1,52.4l-0.9-4.9c-1.4,0.5-2.9,0.7-4.4,0.6c-1.5-0.1-2.9-0.6-4.2-1.5c-0.8-0.5-1.5-1.2-2.1-2c-0.6-0.8-1.1-1.6-1.4-2.4
	c-0.3-0.8-0.4-1.7-0.3-2.6c0.1-0.9,0.4-1.8,1-2.6c0.5-0.7,1-1.3,1.7-1.7c0.6-0.4,1.4-0.7,2.1-0.9c0.8-0.2,1.6-0.4,2.5-0.4
	c0.9-0.1,1.8-0.1,2.7-0.1c-0.2-1-0.3-1.9-0.4-2.7c-0.1-0.8-0.1-1.4-0.1-2c0-0.6,0.1-1.1,0.2-1.5s0.3-0.8,0.5-1.2
	c0.4-0.6,0.9-1,1.5-1.4c0.6-0.3,1.2-0.6,2-0.7c0.7-0.1,1.4-0.1,2.2,0.1s1.5,0.5,2.2,0.9c0.6,0.4,1.2,0.9,1.6,1.5
	c0.4,0.6,0.7,1.1,0.9,1.8s0.2,1.2,0.1,1.8c-0.1,0.6-0.3,1.2-0.7,1.7c-0.4,0.6-0.9,1.1-1.5,1.4s-1.3,0.6-2.1,0.7
	c-0.8,0.2-1.6,0.3-2.5,0.3c-0.9,0.1-1.8,0.1-2.7,0.1l2,11.3c1-0.5,1.9-1.1,2.8-1.9c0.9-0.8,1.6-1.6,2.3-2.6l0.9,0.6
	c-0.7,1.1-1.6,2.1-2.6,2.9c-1,0.8-2.1,1.5-3.2,2.1l1.1,6.2L169.1,52.4z M160.3,45.7c1.2,0.8,2.5,1.2,3.8,1.3
	c1.3,0.1,2.6-0.1,3.9-0.6l-2.1-11.8c-0.9,0-1.7,0-2.5,0.1c-0.8,0.1-1.6,0.2-2.3,0.4c-0.7,0.2-1.4,0.5-1.9,0.9
	c-0.6,0.4-1.1,0.9-1.5,1.5c-0.5,0.8-0.8,1.5-0.8,2.3c0,0.8,0.1,1.5,0.4,2.2c0.3,0.7,0.7,1.4,1.2,2C159,44.8,159.6,45.3,160.3,45.7z
	 M167,27c-0.2,0.3-0.3,0.5-0.4,0.9c-0.1,0.3-0.2,0.8-0.2,1.3c0,0.5,0,1.1,0,1.9s0.2,1.6,0.4,2.7c1,0,1.9,0,2.8-0.1
	c0.8,0,1.6-0.1,2.3-0.3c0.7-0.1,1.3-0.3,1.8-0.6c0.5-0.3,0.9-0.7,1.2-1.1c0.6-0.9,0.7-1.8,0.4-2.8c-0.3-1-1-1.9-2-2.5
	c-0.6-0.4-1.2-0.6-1.8-0.8c-0.6-0.1-1.2-0.2-1.8-0.1c-0.6,0.1-1.1,0.2-1.6,0.5C167.7,26.2,167.3,26.6,167,27z"/>
<path class="st0" d="M15.5,146.5c-2.7-9.1-4.2-18.8-4.2-28.8c0-27.5,11-52.4,28.7-70.7"/>
<path class="st0" d="M185.1,47c17.8,18.2,28.7,43.2,28.7,70.7c0,10-1.5,19.7-4.2,28.8"/>
<g>
	<g>
		<polygon class="st1" points="58.2,159.3 89.3,166 104,140.5 58.8,96.6 48.7,113.5 		"/>
		<polyline class="st1" points="104,140.6 74.5,135.6 72.4,153.8 89.3,166.1 		"/>
		<polyline class="st1" points="58.8,96.6 74.5,135.6 48.7,113.6 		"/>
		<line class="st1" x1="58.1" y1="159.4" x2="72.4" y2="153.8"/>
	</g>
	<g>
		<polyline class="st2" points="132.3,127.2 111.5,139.4 99.9,113.8 124.3,74.1 147.6,68.9 155.8,88.4 127.7,93.2 107.4,128 
			132.3,127.2 155.8,88.4 		"/>
		<line class="st2" x1="111.5" y1="139.4" x2="147.6" y2="68.9"/>
		<line class="st2" x1="127.7" y1="93.2" x2="124.3" y2="74.1"/>
	</g>
	<g>
		<polygon class="st1" points="175.5,90.6 99.8,177.2 175.4,146.2 		"/>
		<polyline class="st1" points="175.5,90.6 155.3,135.9 175.4,146.2 		"/>
		<line class="st1" x1="99.8" y1="177.2" x2="155.3" y2="135.9"/>
	</g>
</g>
</svg>
